<svg width="24" height="24" viewBox="0 0 24 24" fill="none" xmlns="http://www.w3.org/2000/svg">
<path d="M15.8889 9.11111H17.4444C18.3036 9.11111 19 9.80756 19 10.6667V15.3333C19 16.1924 18.3036 16.8889 17.4444 16.8889H15.8889V20L12.7778 16.8889H9.66667C9.23711 16.8889 8.84822 16.7148 8.56672 16.4333M8.56672 16.4333L11.2222 13.7778H14.3333C15.1924 13.7778 15.8889 13.0813 15.8889 12.2222V7.55556C15.8889 6.69645 15.1924 6 14.3333 6H6.55556C5.69645 6 5 6.69645 5 7.55556V12.2222C5 13.0813 5.69645 13.7778 6.55556 13.7778H8.11111V16.8889L8.56672 16.4333Z" stroke="#032040" stroke-width="2" stroke-linecap="round" stroke-linejoin="round"/>
</svg>
