<svg width="16" height="11" viewBox="0 0 16 11" fill="none" xmlns="http://www.w3.org/2000/svg">
<path opacity="0.5" d="M12.1457 4.69742H0.802577C0.359326 4.69742 0 5.05675 0 5.5V5.5C0 5.94325 0.359325 6.30258 0.802576 6.30258H12.1457C11.0929 7.06188 9.78473 8.20659 8.72671 9.40557C8.37976 9.79875 8.50559 10.4018 8.96501 10.6546V10.6546C9.32826 10.8544 9.78102 10.7639 10.0541 10.4519C11.3391 8.98427 12.99 7.54893 14.6152 6.40616C15.2306 5.97343 15.2306 5.02657 14.6152 4.59384C12.99 3.45106 11.3391 2.01573 10.0541 0.548069C9.78102 0.236134 9.32826 0.145568 8.96501 0.345419V0.345419C8.50559 0.598182 8.37976 1.20125 8.72671 1.59443C9.78473 2.79341 11.0929 3.93812 12.1457 4.69742Z" fill="#032040"/>
</svg>
