<svg width="19" height="19" viewBox="0 0 19 19" fill="none" xmlns="http://www.w3.org/2000/svg">
<path d="M18.0005 9.5C18.004 10.8199 17.6956 12.1219 17.1005 13.3C16.3949 14.7117 15.3103 15.8992 13.968 16.7293C12.6257 17.5594 11.0788 17.9994 9.50051 18C8.18065 18.0034 6.87863 17.6951 5.70051 17.1L1 18L1.90051 13.3C1.30545 12.1219 0.997073 10.8199 1.00051 9.5C1.00112 7.92176 1.44113 6.37485 2.27123 5.03255C3.10134 3.69025 4.28877 2.60557 5.70051 1.9C6.87863 1.30493 8.18065 0.996557 9.50051 0.999998H10.0005C12.0849 1.11499 14.0536 1.99476 15.5297 3.47086C17.0058 4.94695 17.8855 6.91565 18.0005 9V9.5Z" stroke="white" stroke-width="2" stroke-linecap="round" stroke-linejoin="round"/>
<path fill-rule="evenodd" clip-rule="evenodd" d="M7 9.5C7 10.3284 6.32812 11 5.5 11C4.67188 11 4 10.3284 4 9.5C4 8.67157 4.67188 8 5.5 8C6.32812 8 7 8.67157 7 9.5ZM11 9.5C11 10.3284 10.3281 11 9.5 11C8.67188 11 8 10.3284 8 9.5C8 8.67157 8.67188 8 9.5 8C10.3281 8 11 8.67157 11 9.5ZM13.5 11C14.3281 11 15 10.3284 15 9.5C15 8.67157 14.3281 8 13.5 8C12.6719 8 12 8.67157 12 9.5C12 10.3284 12.6719 11 13.5 11Z" fill="white"/>
</svg>
